<?xml version="1.0" standalone="no"?>
<!DOCTYPE svg PUBLIC "-//W3C//DTD SVG 20010904//EN"
 "http://www.w3.org/TR/2001/REC-SVG-20010904/DTD/svg10.dtd">
<svg version="1.0" xmlns="http://www.w3.org/2000/svg"
 width="70.000000pt" height="70.000000pt" viewBox="0 0 70.000000 70.000000"
 preserveAspectRatio="xMidYMid meet">
<metadata>
Created by potrace 1.14, written by Peter Selinger 2001-2017
</metadata>
<g transform="translate(0.000000,70.000000) scale(0.100000,-0.100000)"
fill="#000000" stroke="none">
<path d="M182 671 c-7 -4 -10 -42 -10 -92 1 -47 -2 -90 -6 -97 -4 -7 -3 -12 2
-12 10 0 9 -30 -2 -48 -4 -6 -3 -12 2 -12 10 0 9 -30 -2 -48 -4 -6 -3 -12 2
-12 10 0 9 -30 -2 -48 -4 -6 -3 -12 2 -12 10 0 9 -30 -2 -48 -4 -6 -3 -12 1
-12 5 0 7 -43 6 -95 -3 -82 -1 -95 12 -95 10 0 13 -5 9 -12 -6 -10 -4 -10 7
-1 17 17 32 17 23 1 -6 -10 -4 -10 7 0 14 13 33 17 26 4 -3 -4 5 -7 18 -7 13
0 21 3 19 7 -2 3 1 8 7 10 8 3 11 31 10 86 -1 45 1 82 4 82 10 0 35 -28 35
-39 0 -6 5 -11 10 -11 6 0 10 -5 10 -11 0 -7 10 -20 22 -30 12 -11 16 -19 8
-19 -7 0 -1 -9 14 -21 14 -11 24 -25 21 -30 -4 -5 3 -9 15 -9 14 0 19 -4 14
-12 -6 -10 -4 -11 7 0 15 14 33 17 25 4 -6 -10 30 -9 40 1 11 10 26 8 20 -2
-4 -5 2 -8 11 -7 19 3 32 46 14 46 -6 0 -11 7 -11 15 0 8 -4 15 -10 15 -5 0
-10 7 -10 15 0 8 -7 15 -16 15 -8 0 -12 5 -9 10 3 6 2 10 -2 10 -5 0 -17 16
-27 35 -11 19 -23 35 -28 35 -4 0 -8 7 -8 16 0 8 -4 13 -9 9 -6 -3 -9 4 -8 15
1 11 5 20 9 20 4 0 8 5 8 11 0 6 7 17 15 26 8 8 13 19 9 24 -3 5 -2 8 3 7 4
-2 9 0 11 5 1 4 11 16 22 27 12 12 18 26 14 32 -4 7 -3 8 4 4 7 -4 12 -2 12 4
0 6 5 8 12 4 6 -4 8 -3 4 4 -3 6 1 17 9 25 17 18 20 47 4 47 -5 0 -8 -3 -6 -7
3 -5 -6 -9 -20 -10 -16 0 -21 2 -14 7 10 5 9 9 -2 13 -9 3 -18 -1 -21 -9 -3
-8 -11 -14 -18 -14 -9 0 -8 3 2 10 12 8 9 10 -13 10 -20 0 -26 -4 -21 -12 5
-8 0 -7 -11 2 -11 9 -16 10 -11 3 4 -8 1 -13 -8 -13 -14 0 -20 -12 -17 -32 0
-5 -6 -8 -15 -8 -8 0 -12 -5 -9 -10 3 -6 -1 -13 -9 -16 -9 -3 -14 -10 -11 -14
3 -4 -2 -13 -10 -20 -8 -7 -15 -18 -15 -26 0 -7 -9 -18 -20 -24 -20 -11 -20
-8 -20 168 l0 178 -59 1 c-32 0 -64 -2 -69 -6z"/>
</g>
</svg>
